<?xml version="1.0" encoding="UTF-8"?>
<!-- Created with Inkscape (http://www.inkscape.org/) -->
<svg width="210mm" height="297mm" version="1.1" viewBox="0 0 210 297" xmlns="http://www.w3.org/2000/svg" xmlns:cc="http://creativecommons.org/ns#" xmlns:dc="http://purl.org/dc/elements/1.1/" xmlns:rdf="http://www.w3.org/1999/02/22-rdf-syntax-ns#">
 <metadata>
  <rdf:RDF>
   <cc:Work rdf:about="">
    <dc:format>image/svg+xml</dc:format>
    <dc:type rdf:resource="http://purl.org/dc/dcmitype/StillImage"/>
    <dc:title/>
   </cc:Work>
  </rdf:RDF>
 </metadata>
 <flowRoot fill="black" font-family="sans-serif" font-size="8px" letter-spacing="0px" word-spacing="0px" style="line-height:1.25" xml:space="preserve"><flowRegion><rect x="425.27" y="281.57" width="23.234" height="147.99"/></flowRegion><flowPara/></flowRoot>
 <g transform="translate(-.92604 -31.485)">
  <g transform="matrix(.03284 .032937 -.032937 .03284 66.817 127.29)" stroke-width="5.6885">
   <g stroke-width="5.6885">
    <path d="m310 190c-5.52 0-10 4.48-10 10s4.48 10 10 10 10-4.48 10-10-4.48-10-10-10z" stroke-width="5.6885"/>
   </g>
   <g stroke-width="5.6885">
    <path d="m500.28 443.72-133.48-133.48c21.745-32.754 33.199-70.684 33.199-110.24 0-110.28-89.72-200-200-200s-200 89.72-200 200 89.72 200 200 200c39.556 0 77.486-11.455 110.24-33.198l133.48 133.48c7.558 7.557 17.601 11.719 28.282 11.719s20.724-4.162 28.278-11.716c7.559-7.553 11.722-17.597 11.722-28.284s-4.163-20.731-11.719-28.281zm-194.74-97.992c0 1e-3 -1e-3 1e-3 -2e-3 2e-3 -30.867 22.42-67.359 34.271-105.53 34.271-99.252 0-180-80.748-180-180s80.748-180 180-180 180 80.748 180 180c0 38.175-11.851 74.667-34.272 105.54-11.217 15.453-24.739 28.976-40.192 40.192zm20.98 9.066c10.35-8.467 19.811-17.928 28.277-28.277l28.371 28.371c-8.628 10.183-18.094 19.65-28.277 28.277zm159.62 131.35c-3.78 3.78-8.801 5.861-14.139 5.861s-10.359-2.081-14.139-5.861l-88.795-88.795c10.127-8.691 19.587-18.15 28.277-28.277l88.798 88.798c3.778 3.774 5.859 8.793 5.859 14.135s-2.081 10.361-5.861 14.139z" stroke-width="5.6885"/>
   </g>
   <g stroke-width="5.6885">
    <path d="m200 40c-88.225 0-160 71.775-160 160s71.775 160 160 160 160-71.775 160-160-71.775-160-160-160zm0 300c-77.196 0-140-62.804-140-140s62.804-140 140-140 140 62.804 140 140-62.804 140-140 140z" stroke-width="5.6885"/>
   </g>
   <g stroke-width="5.6885">
    <path d="m312.06 157.07c-8.611-22.412-23.604-41.574-43.36-55.413-20.226-14.17-43.984-21.66-68.705-21.66-5.522 0-10 4.478-10 10s4.478 10 10 10c41.099 0 78.631 25.818 93.396 64.247 1.528 3.976 5.317 6.416 9.337 6.416 1.192 0 2.405-0.215 3.584-0.668 5.155-1.981 7.729-7.766 5.748-12.922z" stroke-width="5.6885"/>
   </g>
  </g>
  <text x="35.687336" y="159.11807" fill="#000000" font-family="sans-serif" font-size="1.8963px" letter-spacing="0px" stroke-width=".26458" word-spacing="0px" style="line-height:1.25" xml:space="preserve"><tspan x="35.687336" y="159.11807" font-family="'Wide Latin'" font-size="17.699px" stroke-width=".26458">D  GGER</tspan></text>
  <g transform="matrix(-.2011 0 0 .2011 209.92 117.41)" stroke-width="1.3157">
   <path d="m168.33 45.904c12.676 0 22.952-10.276 22.952-22.952s-10.276-22.952-22.952-22.952-22.952 10.276-22.952 22.952c0 8.057 4.155 15.14 10.436 19.235l-14.614 39.157c-2.62-0.588-5.342-0.909-8.14-0.909-9.105 0-17.437 3.293-23.884 8.745l-48.07-43.354c2.077-3.572 3.273-7.72 3.273-12.149 0-13.37-10.838-24.208-24.208-24.208s-24.208 10.838-24.208 24.208 10.838 24.208 24.208 24.208c5.323 0 10.241-1.722 14.237-4.634l48.065 43.351c-4.057 5.939-6.433 13.118-6.433 20.853 0 9.332 3.46 17.85 9.158 24.361l-32.185 24.7c-4.007-3.362-9.171-5.39-14.811-5.39-12.735 0-23.058 10.323-23.058 23.058s10.324 23.058 23.058 23.058c12.735 0 23.058-10.324 23.058-23.058 0-3.481-0.776-6.779-2.156-9.737l33.806-25.943c5.8 3.772 12.716 5.971 20.151 5.971 20.445 0 37.02-16.574 37.02-37.02 0-14.11-7.896-26.374-19.509-32.62l14.612-39.151c1.028 0.141 2.078 0.22 3.146 0.22z" stroke-width="1.3157"/>
  </g>
  <g transform="matrix(-.022889 -.023211 .024765 -.023171 31.581 159.79)" stroke-width="7.9588">
   <path d="m362.78 70.663c-68.005-53.161-142.6-78.526-195.98-68.517 53.349 13.213 113.39 46.231 170.37 94.123z"/>
   <path d="m5.448 480c-7.261 7.261-7.261 19.034 0 26.295s19.034 7.261 26.295 0l326.96-326.96-26.295-26.295z"/>
   <path d="m441.08 148.97-25.607 25.607c47.891 56.972 80.909 117.02 94.124 170.36 10.001-53.384-15.365-127.97-68.517-195.97z"/>
   <path d="m443.63 107.34-39.223-39.223c-3.655-3.643-9.568-3.643-13.223 0l-52.304 52.304c-1.755 1.753-2.741 4.131-2.741 6.612s0.986 4.859 2.741 6.612l39.223 39.223c3.697 3.531 9.517 3.531 13.214 0l52.313-52.304c3.643-3.656 3.643-9.569 0-13.224z"/>
  </g>
 </g>
</svg>
